<svg width="1600" height="720" viewBox="0 0 1600 720" fill="none" xmlns="http://www.w3.org/2000/svg">
  <defs>
    <linearGradient id="card" x1="120" y1="80" x2="1450" y2="650" gradientUnits="userSpaceOnUse">
      <stop offset="0" stop-color="#183B5A"/>
      <stop offset="1" stop-color="#10283E"/>
    </linearGradient>
    <linearGradient id="paper" x1="982" y1="140" x2="1304" y2="492" gradientUnits="userSpaceOnUse">
      <stop offset="0" stop-color="#FFFDF9"/>
      <stop offset="1" stop-color="#F4EFE5"/>
    </linearGradient>
    <linearGradient id="lens" x1="1080" y1="184" x2="1334" y2="442" gradientUnits="userSpaceOnUse">
      <stop offset="0" stop-color="#73EAEF"/>
      <stop offset="1" stop-color="#1EA0BB"/>
    </linearGradient>
  </defs>

  <rect width="1600" height="720" fill="#FFFFFF"/>
  <rect x="92" y="76" width="1416" height="568" rx="48" fill="url(#card)"/>
  <circle cx="1245" cy="188" r="210" fill="#53D9E4" fill-opacity="0.07"/>
  <circle cx="1414" cy="156" r="138" fill="#F16B5C" fill-opacity="0.05"/>

  <rect x="148" y="132" width="322" height="48" rx="24" fill="#234D6D" stroke="#3B6C8C"/>
  <text x="182" y="163" fill="#DAEEF7" font-size="24" font-weight="700" font-family="Segoe UI, Arial, sans-serif" letter-spacing="1.1">REFERENCE + SEARCH WORKFLOW</text>

  <text x="148" y="276" fill="#FFF6EA" font-size="92" font-weight="800" font-family="Segoe UI, Arial, sans-serif">Zotero Keeper</text>
  <text x="148" y="356" fill="#73EAEF" font-size="66" font-weight="700" font-family="Segoe UI, Arial, sans-serif">+ PubMed Search MCP</text>

  <text x="148" y="444" fill="#CFE1EC" font-size="31" font-weight="500" font-family="Segoe UI, Arial, sans-serif">Collection-aware reference management, literature search,</text>
  <text x="148" y="488" fill="#CFE1EC" font-size="31" font-weight="500" font-family="Segoe UI, Arial, sans-serif">and evidence import for researchers inside VS Code.</text>

  <circle cx="182" cy="558" r="11" fill="#73EAEF"/>
  <circle cx="246" cy="558" r="11" fill="#F16B5C"/>
  <circle cx="310" cy="558" r="11" fill="#73EAEF"/>
  <text x="340" y="570" fill="#A8C6D8" font-size="23" font-weight="600" font-family="Segoe UI, Arial, sans-serif">Search, collect, import, organize</text>

  <path d="M987 160C1095 93 1222 90 1339 130C1423 159 1487 210 1521 274" stroke="#98EFF2" stroke-width="8" stroke-linecap="round" opacity="0.9"/>
  <path d="M996 538C1108 587 1230 597 1342 566C1428 542 1492 500 1525 446" stroke="#98EFF2" stroke-width="8" stroke-linecap="round" opacity="0.9"/>
  <circle cx="987" cy="160" r="10" fill="#98EFF2"/>
  <circle cx="1339" cy="130" r="10" fill="#98EFF2"/>
  <circle cx="1521" cy="274" r="10" fill="#98EFF2"/>
  <circle cx="996" cy="538" r="10" fill="#98EFF2"/>
  <circle cx="1342" cy="566" r="10" fill="#98EFF2"/>
  <circle cx="1525" cy="446" r="10" fill="#98EFF2"/>

  <g>
    <rect x="968" y="138" width="334" height="404" rx="36" transform="rotate(-8 968 138)" fill="url(#paper)" stroke="#D8CFC2" stroke-width="3"/>
    <rect x="1010" y="124" width="330" height="392" rx="36" transform="rotate(8 1010 124)" fill="#F7F3EA" fill-opacity="0.72" stroke="#E0D6C7" stroke-width="2"/>
    <rect x="1012" y="186" width="190" height="20" rx="10" transform="rotate(-8 1012 186)" fill="#B8C7CE"/>
    <rect x="1012" y="228" width="214" height="20" rx="10" transform="rotate(-8 1012 228)" fill="#B8C7CE"/>
    <rect x="1012" y="270" width="160" height="20" rx="10" transform="rotate(-8 1012 270)" fill="#B8C7CE"/>

    <rect x="1034" y="338" width="164" height="90" rx="22" transform="rotate(-8 1034 338)" fill="#EAF8FA" stroke="#1B95A9" stroke-width="10"/>
    <path d="M1057 392L1114 348L1162 384" stroke="#198FA2" stroke-width="13" stroke-linecap="round" stroke-linejoin="round"/>
    <path d="M1178 398L1230 352" stroke="#198FA2" stroke-width="13" stroke-linecap="round"/>

    <circle cx="1202" cy="304" r="116" fill="url(#lens)"/>
    <circle cx="1202" cy="304" r="88" fill="#F7F9FA"/>
    <path d="M1118 368L1138 398L1198 339L1270 357L1330 303" stroke="#A5DDE4" stroke-width="8" stroke-linecap="round" stroke-linejoin="round"/>
    <circle cx="1138" cy="398" r="9" fill="#73EAEF"/>
    <circle cx="1198" cy="339" r="9" fill="#73EAEF"/>
    <circle cx="1270" cy="357" r="9" fill="#F16B5C"/>
    <circle cx="1330" cy="303" r="9" fill="#73EAEF"/>
    <path d="M1290 392L1375 477" stroke="#2EAFC3" stroke-width="44" stroke-linecap="round"/>
  </g>

  <g>
    <rect x="870" y="474" width="200" height="116" rx="30" fill="#213F5B"/>
    <rect x="892" y="496" width="150" height="18" rx="9" fill="#4A7995"/>
    <rect x="892" y="530" width="112" height="16" rx="8" fill="#4A7995"/>
    <rect x="892" y="561" width="88" height="16" rx="8" fill="#5E4D61"/>
    <path d="M998 470H1098L1140 513V604C1140 618.359 1128.36 630 1114 630H960C945.641 630 934 618.359 934 604V496C934 481.641 945.641 470 960 470H998Z" fill="#CC302E"/>
    <rect x="968" y="510" width="102" height="16" rx="8" fill="#F6C2BC"/>
    <rect x="968" y="543" width="126" height="16" rx="8" fill="#F6C2BC"/>
  </g>
</svg>